<?xml version="1.0" encoding="UTF-8" standalone="no"?>
<!DOCTYPE svg PUBLIC "-//W3C//DTD SVG 1.1//EN"
 "http://www.w3.org/Graphics/SVG/1.1/DTD/svg11.dtd">
<!-- Generated by graphviz version 2.38.0 (20140413.2041)
 -->
<!-- Title: %3 Pages: 1 -->
<svg width="581pt" height="607pt"
 viewBox="0.00 0.00 580.50 607.00" xmlns="http://www.w3.org/2000/svg" xmlns:xlink="http://www.w3.org/1999/xlink">
<g id="graph0" class="graph" transform="scale(1 1) rotate(0) translate(4 603)">
<title>%3</title>
<polygon fill="white" stroke="none" points="-4,4 -4,-603 576.5,-603 576.5,4 -4,4"/>
<!-- 140528971954328 -->
<g id="node1" class="node"><title>140528971954328</title>
<polygon fill="#caff70" stroke="black" points="435,-21 323,-21 323,-0 435,-0 435,-21"/>
<text text-anchor="middle" x="379" y="-7.4" font-family="Times,serif" font-size="12.00">TanhBackward</text>
</g>
<!-- 140528971954720 -->
<g id="node2" class="node"><title>140528971954720</title>
<polygon fill="lightgrey" stroke="black" points="443,-78 315,-78 315,-57 443,-57 443,-78"/>
<text text-anchor="middle" x="379" y="-64.4" font-family="Times,serif" font-size="12.00">AddmmBackward</text>
</g>
<!-- 140528971954720&#45;&gt;140528971954328 -->
<g id="edge1" class="edge"><title>140528971954720&#45;&gt;140528971954328</title>
<path fill="none" stroke="black" d="M379,-56.9197C379,-49.9083 379,-40.1442 379,-31.4652"/>
<polygon fill="black" stroke="black" points="382.5,-31.3408 379,-21.3408 375.5,-31.3409 382.5,-31.3408"/>
</g>
<!-- 140528971954832 -->
<g id="node3" class="node"><title>140528971954832</title>
<polygon fill="lightgrey" stroke="black" points="303,-135 175,-135 175,-114 303,-114 303,-135"/>
<text text-anchor="middle" x="239" y="-121.4" font-family="Times,serif" font-size="12.00">ExpandBackward</text>
</g>
<!-- 140528971954832&#45;&gt;140528971954720 -->
<g id="edge2" class="edge"><title>140528971954832&#45;&gt;140528971954720</title>
<path fill="none" stroke="black" d="M263.386,-113.92C285.933,-105.062 319.662,-91.8115 344.878,-81.9052"/>
<polygon fill="black" stroke="black" points="346.396,-85.0692 354.424,-78.155 343.836,-78.554 346.396,-85.0692"/>
</g>
<!-- 140528971955056 -->
<g id="node4" class="node"><title>140528971955056</title>
<polygon fill="lightblue" stroke="black" points="268.5,-205 203.5,-205 203.5,-171 268.5,-171 268.5,-205"/>
<text text-anchor="middle" x="236" y="-191.4" font-family="Times,serif" font-size="12.00">fc3.bias</text>
<text text-anchor="middle" x="236" y="-178.4" font-family="Times,serif" font-size="12.00"> (4)</text>
</g>
<!-- 140528971955056&#45;&gt;140528971954832 -->
<g id="edge3" class="edge"><title>140528971955056&#45;&gt;140528971954832</title>
<path fill="none" stroke="black" d="M236.788,-170.842C237.17,-163.012 237.632,-153.54 238.035,-145.282"/>
<polygon fill="black" stroke="black" points="241.543,-145.201 238.535,-135.042 234.551,-144.859 241.543,-145.201"/>
</g>
<!-- 140528971954888 -->
<g id="node5" class="node"><title>140528971954888</title>
<polygon fill="lightgrey" stroke="black" points="433,-135 325,-135 325,-114 433,-114 433,-135"/>
<text text-anchor="middle" x="379" y="-121.4" font-family="Times,serif" font-size="12.00">ReluBackward</text>
</g>
<!-- 140528971954888&#45;&gt;140528971954720 -->
<g id="edge4" class="edge"><title>140528971954888&#45;&gt;140528971954720</title>
<path fill="none" stroke="black" d="M379,-113.92C379,-106.908 379,-97.1442 379,-88.4652"/>
<polygon fill="black" stroke="black" points="382.5,-88.3408 379,-78.3408 375.5,-88.3409 382.5,-88.3408"/>
</g>
<!-- 140528971955112 -->
<g id="node6" class="node"><title>140528971955112</title>
<polygon fill="lightgrey" stroke="black" points="471,-198.5 287,-198.5 287,-177.5 471,-177.5 471,-198.5"/>
<text text-anchor="middle" x="379" y="-184.9" font-family="Times,serif" font-size="12.00">ThnnBatchNormBackward</text>
</g>
<!-- 140528971955112&#45;&gt;140528971954888 -->
<g id="edge5" class="edge"><title>140528971955112&#45;&gt;140528971954888</title>
<path fill="none" stroke="black" d="M379,-177.391C379,-168.866 379,-156.139 379,-145.423"/>
<polygon fill="black" stroke="black" points="382.5,-145.245 379,-135.245 375.5,-145.245 382.5,-145.245"/>
</g>
<!-- 140528971955280 -->
<g id="node7" class="node"><title>140528971955280</title>
<polygon fill="lightgrey" stroke="black" points="317,-268.5 189,-268.5 189,-247.5 317,-247.5 317,-268.5"/>
<text text-anchor="middle" x="253" y="-254.9" font-family="Times,serif" font-size="12.00">AddmmBackward</text>
</g>
<!-- 140528971955280&#45;&gt;140528971955112 -->
<g id="edge6" class="edge"><title>140528971955280&#45;&gt;140528971955112</title>
<path fill="none" stroke="black" d="M270.785,-247.401C292.079,-235.91 327.938,-216.557 352.499,-203.302"/>
<polygon fill="black" stroke="black" points="354.167,-206.379 361.305,-198.55 350.842,-200.219 354.167,-206.379"/>
</g>
<!-- 140528971955448 -->
<g id="node8" class="node"><title>140528971955448</title>
<polygon fill="lightgrey" stroke="black" points="177,-332 49,-332 49,-311 177,-311 177,-332"/>
<text text-anchor="middle" x="113" y="-318.4" font-family="Times,serif" font-size="12.00">ExpandBackward</text>
</g>
<!-- 140528971955448&#45;&gt;140528971955280 -->
<g id="edge7" class="edge"><title>140528971955448&#45;&gt;140528971955280</title>
<path fill="none" stroke="black" d="M134.875,-310.891C158.3,-300.601 195.66,-284.189 222.084,-272.581"/>
<polygon fill="black" stroke="black" points="223.531,-275.768 231.279,-268.542 220.715,-269.359 223.531,-275.768"/>
</g>
<!-- 140528971955672 -->
<g id="node9" class="node"><title>140528971955672</title>
<polygon fill="lightblue" stroke="black" points="142.5,-402 77.5,-402 77.5,-368 142.5,-368 142.5,-402"/>
<text text-anchor="middle" x="110" y="-388.4" font-family="Times,serif" font-size="12.00">fc2.bias</text>
<text text-anchor="middle" x="110" y="-375.4" font-family="Times,serif" font-size="12.00"> (300)</text>
</g>
<!-- 140528971955672&#45;&gt;140528971955448 -->
<g id="edge8" class="edge"><title>140528971955672&#45;&gt;140528971955448</title>
<path fill="none" stroke="black" d="M110.788,-367.842C111.17,-360.012 111.632,-350.54 112.035,-342.282"/>
<polygon fill="black" stroke="black" points="115.543,-342.201 112.535,-332.042 108.551,-341.859 115.543,-342.201"/>
</g>
<!-- 140528971955504 -->
<g id="node10" class="node"><title>140528971955504</title>
<polygon fill="lightgrey" stroke="black" points="307,-332 199,-332 199,-311 307,-311 307,-332"/>
<text text-anchor="middle" x="253" y="-318.4" font-family="Times,serif" font-size="12.00">ReluBackward</text>
</g>
<!-- 140528971955504&#45;&gt;140528971955280 -->
<g id="edge9" class="edge"><title>140528971955504&#45;&gt;140528971955280</title>
<path fill="none" stroke="black" d="M253,-310.891C253,-302.366 253,-289.639 253,-278.923"/>
<polygon fill="black" stroke="black" points="256.5,-278.745 253,-268.745 249.5,-278.745 256.5,-278.745"/>
</g>
<!-- 140528971955728 -->
<g id="node11" class="node"><title>140528971955728</title>
<polygon fill="lightgrey" stroke="black" points="345,-395.5 161,-395.5 161,-374.5 345,-374.5 345,-395.5"/>
<text text-anchor="middle" x="253" y="-381.9" font-family="Times,serif" font-size="12.00">ThnnBatchNormBackward</text>
</g>
<!-- 140528971955728&#45;&gt;140528971955504 -->
<g id="edge10" class="edge"><title>140528971955728&#45;&gt;140528971955504</title>
<path fill="none" stroke="black" d="M253,-374.391C253,-365.866 253,-353.139 253,-342.423"/>
<polygon fill="black" stroke="black" points="256.5,-342.245 253,-332.245 249.5,-342.245 256.5,-342.245"/>
</g>
<!-- 140528971955840 -->
<g id="node12" class="node"><title>140528971955840</title>
<polygon fill="lightgrey" stroke="black" points="191,-465.5 63,-465.5 63,-444.5 191,-444.5 191,-465.5"/>
<text text-anchor="middle" x="127" y="-451.9" font-family="Times,serif" font-size="12.00">AddmmBackward</text>
</g>
<!-- 140528971955840&#45;&gt;140528971955728 -->
<g id="edge11" class="edge"><title>140528971955840&#45;&gt;140528971955728</title>
<path fill="none" stroke="black" d="M144.785,-444.401C166.079,-432.91 201.938,-413.557 226.499,-400.302"/>
<polygon fill="black" stroke="black" points="228.167,-403.379 235.305,-395.55 224.842,-397.219 228.167,-403.379"/>
</g>
<!-- 140528971956064 -->
<g id="node13" class="node"><title>140528971956064</title>
<polygon fill="lightgrey" stroke="black" points="128,-529 0,-529 0,-508 128,-508 128,-529"/>
<text text-anchor="middle" x="64" y="-515.4" font-family="Times,serif" font-size="12.00">ExpandBackward</text>
</g>
<!-- 140528971956064&#45;&gt;140528971955840 -->
<g id="edge12" class="edge"><title>140528971956064&#45;&gt;140528971955840</title>
<path fill="none" stroke="black" d="M73.8438,-507.891C83.4039,-498.558 98.1223,-484.19 109.65,-472.937"/>
<polygon fill="black" stroke="black" points="112.307,-475.235 117.017,-465.745 107.417,-470.226 112.307,-475.235"/>
</g>
<!-- 140528971968584 -->
<g id="node14" class="node"><title>140528971968584</title>
<polygon fill="lightblue" stroke="black" points="96.5,-599 31.5,-599 31.5,-565 96.5,-565 96.5,-599"/>
<text text-anchor="middle" x="64" y="-585.4" font-family="Times,serif" font-size="12.00">fc1.bias</text>
<text text-anchor="middle" x="64" y="-572.4" font-family="Times,serif" font-size="12.00"> (400)</text>
</g>
<!-- 140528971968584&#45;&gt;140528971956064 -->
<g id="edge13" class="edge"><title>140528971968584&#45;&gt;140528971956064</title>
<path fill="none" stroke="black" d="M64,-564.842C64,-557.012 64,-547.54 64,-539.282"/>
<polygon fill="black" stroke="black" points="67.5001,-539.042 64,-529.042 60.5001,-539.042 67.5001,-539.042"/>
</g>
<!-- 140528971956120 -->
<g id="node15" class="node"><title>140528971956120</title>
<polygon fill="lightgrey" stroke="black" points="234,-529 146,-529 146,-508 234,-508 234,-529"/>
<text text-anchor="middle" x="190" y="-515.4" font-family="Times,serif" font-size="12.00">TBackward</text>
</g>
<!-- 140528971956120&#45;&gt;140528971955840 -->
<g id="edge14" class="edge"><title>140528971956120&#45;&gt;140528971955840</title>
<path fill="none" stroke="black" d="M180.156,-507.891C170.596,-498.558 155.878,-484.19 144.35,-472.937"/>
<polygon fill="black" stroke="black" points="146.583,-470.226 136.983,-465.745 141.693,-475.235 146.583,-470.226"/>
</g>
<!-- 140528971968640 -->
<g id="node16" class="node"><title>140528971968640</title>
<polygon fill="lightblue" stroke="black" points="231.5,-599 148.5,-599 148.5,-565 231.5,-565 231.5,-599"/>
<text text-anchor="middle" x="190" y="-585.4" font-family="Times,serif" font-size="12.00">fc1.weight</text>
<text text-anchor="middle" x="190" y="-572.4" font-family="Times,serif" font-size="12.00"> (400, 33)</text>
</g>
<!-- 140528971968640&#45;&gt;140528971956120 -->
<g id="edge15" class="edge"><title>140528971968640&#45;&gt;140528971956120</title>
<path fill="none" stroke="black" d="M190,-564.842C190,-557.012 190,-547.54 190,-539.282"/>
<polygon fill="black" stroke="black" points="193.5,-539.042 190,-529.042 186.5,-539.042 193.5,-539.042"/>
</g>
<!-- 140528971955896 -->
<g id="node17" class="node"><title>140528971955896</title>
<polygon fill="lightblue" stroke="black" points="297,-472 209,-472 209,-438 297,-438 297,-472"/>
<text text-anchor="middle" x="253" y="-458.4" font-family="Times,serif" font-size="12.00">bn1.weight</text>
<text text-anchor="middle" x="253" y="-445.4" font-family="Times,serif" font-size="12.00"> (400)</text>
</g>
<!-- 140528971955896&#45;&gt;140528971955728 -->
<g id="edge16" class="edge"><title>140528971955896&#45;&gt;140528971955728</title>
<path fill="none" stroke="black" d="M253,-437.885C253,-428.309 253,-416.088 253,-405.912"/>
<polygon fill="black" stroke="black" points="256.5,-405.895 253,-395.895 249.5,-405.895 256.5,-405.895"/>
</g>
<!-- 140528971955952 -->
<g id="node18" class="node"><title>140528971955952</title>
<polygon fill="lightblue" stroke="black" points="386.5,-472 315.5,-472 315.5,-438 386.5,-438 386.5,-472"/>
<text text-anchor="middle" x="351" y="-458.4" font-family="Times,serif" font-size="12.00">bn1.bias</text>
<text text-anchor="middle" x="351" y="-445.4" font-family="Times,serif" font-size="12.00"> (400)</text>
</g>
<!-- 140528971955952&#45;&gt;140528971955728 -->
<g id="edge17" class="edge"><title>140528971955952&#45;&gt;140528971955728</title>
<path fill="none" stroke="black" d="M327.775,-437.885C311.972,-426.919 291.168,-412.484 275.517,-401.624"/>
<polygon fill="black" stroke="black" points="277.186,-398.522 266.974,-395.696 273.195,-404.273 277.186,-398.522"/>
</g>
<!-- 140528971955560 -->
<g id="node19" class="node"><title>140528971955560</title>
<polygon fill="lightgrey" stroke="black" points="431,-332 343,-332 343,-311 431,-311 431,-332"/>
<text text-anchor="middle" x="387" y="-318.4" font-family="Times,serif" font-size="12.00">TBackward</text>
</g>
<!-- 140528971955560&#45;&gt;140528971955280 -->
<g id="edge18" class="edge"><title>140528971955560&#45;&gt;140528971955280</title>
<path fill="none" stroke="black" d="M366.062,-310.891C343.74,-300.646 308.196,-284.333 282.924,-272.734"/>
<polygon fill="black" stroke="black" points="284.339,-269.532 273.79,-268.542 281.419,-275.894 284.339,-269.532"/>
</g>
<!-- 140528971955784 -->
<g id="node20" class="node"><title>140528971955784</title>
<polygon fill="lightblue" stroke="black" points="446.5,-402 363.5,-402 363.5,-368 446.5,-368 446.5,-402"/>
<text text-anchor="middle" x="405" y="-388.4" font-family="Times,serif" font-size="12.00">fc2.weight</text>
<text text-anchor="middle" x="405" y="-375.4" font-family="Times,serif" font-size="12.00"> (300, 400)</text>
</g>
<!-- 140528971955784&#45;&gt;140528971955560 -->
<g id="edge19" class="edge"><title>140528971955784&#45;&gt;140528971955560</title>
<path fill="none" stroke="black" d="M400.271,-367.842C397.927,-359.834 395.08,-350.108 392.626,-341.72"/>
<polygon fill="black" stroke="black" points="395.961,-340.656 389.793,-332.042 389.243,-342.622 395.961,-340.656"/>
</g>
<!-- 140528971955392 -->
<g id="node21" class="node"><title>140528971955392</title>
<polygon fill="lightblue" stroke="black" points="423,-275 335,-275 335,-241 423,-241 423,-275"/>
<text text-anchor="middle" x="379" y="-261.4" font-family="Times,serif" font-size="12.00">bn2.weight</text>
<text text-anchor="middle" x="379" y="-248.4" font-family="Times,serif" font-size="12.00"> (300)</text>
</g>
<!-- 140528971955392&#45;&gt;140528971955112 -->
<g id="edge20" class="edge"><title>140528971955392&#45;&gt;140528971955112</title>
<path fill="none" stroke="black" d="M379,-240.885C379,-231.309 379,-219.088 379,-208.912"/>
<polygon fill="black" stroke="black" points="382.5,-208.895 379,-198.895 375.5,-208.895 382.5,-208.895"/>
</g>
<!-- 140528971955336 -->
<g id="node22" class="node"><title>140528971955336</title>
<polygon fill="lightblue" stroke="black" points="512.5,-275 441.5,-275 441.5,-241 512.5,-241 512.5,-275"/>
<text text-anchor="middle" x="477" y="-261.4" font-family="Times,serif" font-size="12.00">bn2.bias</text>
<text text-anchor="middle" x="477" y="-248.4" font-family="Times,serif" font-size="12.00"> (300)</text>
</g>
<!-- 140528971955336&#45;&gt;140528971955112 -->
<g id="edge21" class="edge"><title>140528971955336&#45;&gt;140528971955112</title>
<path fill="none" stroke="black" d="M453.775,-240.885C437.972,-229.919 417.168,-215.484 401.517,-204.624"/>
<polygon fill="black" stroke="black" points="403.186,-201.522 392.974,-198.696 399.195,-207.273 403.186,-201.522"/>
</g>
<!-- 140528971954944 -->
<g id="node23" class="node"><title>140528971954944</title>
<polygon fill="lightgrey" stroke="black" points="557,-135 469,-135 469,-114 557,-114 557,-135"/>
<text text-anchor="middle" x="513" y="-121.4" font-family="Times,serif" font-size="12.00">TBackward</text>
</g>
<!-- 140528971954944&#45;&gt;140528971954720 -->
<g id="edge22" class="edge"><title>140528971954944&#45;&gt;140528971954720</title>
<path fill="none" stroke="black" d="M489.659,-113.92C468.174,-105.101 436.081,-91.9287 411.981,-82.0369"/>
<polygon fill="black" stroke="black" points="413.103,-78.7143 402.523,-78.155 410.445,-85.19 413.103,-78.7143"/>
</g>
<!-- 140528971955168 -->
<g id="node24" class="node"><title>140528971955168</title>
<polygon fill="lightblue" stroke="black" points="572.5,-205 489.5,-205 489.5,-171 572.5,-171 572.5,-205"/>
<text text-anchor="middle" x="531" y="-191.4" font-family="Times,serif" font-size="12.00">fc3.weight</text>
<text text-anchor="middle" x="531" y="-178.4" font-family="Times,serif" font-size="12.00"> (4, 300)</text>
</g>
<!-- 140528971955168&#45;&gt;140528971954944 -->
<g id="edge23" class="edge"><title>140528971955168&#45;&gt;140528971954944</title>
<path fill="none" stroke="black" d="M526.271,-170.842C523.927,-162.834 521.08,-153.108 518.626,-144.72"/>
<polygon fill="black" stroke="black" points="521.961,-143.656 515.793,-135.042 515.243,-145.622 521.961,-143.656"/>
</g>
</g>
</svg>