<?xml version="1.0" encoding="UTF-8" standalone="no"?>
<!DOCTYPE svg PUBLIC "-//W3C//DTD SVG 1.1//EN"
 "http://www.w3.org/Graphics/SVG/1.1/DTD/svg11.dtd">
<!-- Generated by graphviz version 2.38.0 (20140413.2041)
 -->
<!-- Title: %3 Pages: 1 -->
<svg width="582pt" height="607pt"
 viewBox="0.00 0.00 581.50 607.00" xmlns="http://www.w3.org/2000/svg" xmlns:xlink="http://www.w3.org/1999/xlink">
<g id="graph0" class="graph" transform="scale(1 1) rotate(0) translate(4 603)">
<title>%3</title>
<polygon fill="white" stroke="none" points="-4,4 -4,-603 577.5,-603 577.5,4 -4,4"/>
<!-- 140528971954552 -->
<g id="node1" class="node"><title>140528971954552</title>
<polygon fill="#caff70" stroke="black" points="444,-21 316,-21 316,-0 444,-0 444,-21"/>
<text text-anchor="middle" x="380" y="-7.4" font-family="Times,serif" font-size="12.00">AddmmBackward</text>
</g>
<!-- 140528971954496 -->
<g id="node2" class="node"><title>140528971954496</title>
<polygon fill="lightgrey" stroke="black" points="304,-78 176,-78 176,-57 304,-57 304,-78"/>
<text text-anchor="middle" x="240" y="-64.4" font-family="Times,serif" font-size="12.00">ExpandBackward</text>
</g>
<!-- 140528971954496&#45;&gt;140528971954552 -->
<g id="edge1" class="edge"><title>140528971954496&#45;&gt;140528971954552</title>
<path fill="none" stroke="black" d="M264.386,-56.9197C286.933,-48.0622 320.662,-34.8115 345.878,-24.9052"/>
<polygon fill="black" stroke="black" points="347.396,-28.0692 355.424,-21.155 344.836,-21.554 347.396,-28.0692"/>
</g>
<!-- 140528971969480 -->
<g id="node3" class="node"><title>140528971969480</title>
<polygon fill="lightblue" stroke="black" points="269.5,-148 204.5,-148 204.5,-114 269.5,-114 269.5,-148"/>
<text text-anchor="middle" x="237" y="-134.4" font-family="Times,serif" font-size="12.00">fc3.bias</text>
<text text-anchor="middle" x="237" y="-121.4" font-family="Times,serif" font-size="12.00"> (1)</text>
</g>
<!-- 140528971969480&#45;&gt;140528971954496 -->
<g id="edge2" class="edge"><title>140528971969480&#45;&gt;140528971954496</title>
<path fill="none" stroke="black" d="M237.788,-113.842C238.17,-106.012 238.632,-96.5396 239.035,-88.2816"/>
<polygon fill="black" stroke="black" points="242.543,-88.2006 239.535,-78.0419 235.551,-87.8595 242.543,-88.2006"/>
</g>
<!-- 140528971954272 -->
<g id="node4" class="node"><title>140528971954272</title>
<polygon fill="lightgrey" stroke="black" points="434,-78 326,-78 326,-57 434,-57 434,-78"/>
<text text-anchor="middle" x="380" y="-64.4" font-family="Times,serif" font-size="12.00">ReluBackward</text>
</g>
<!-- 140528971954272&#45;&gt;140528971954552 -->
<g id="edge3" class="edge"><title>140528971954272&#45;&gt;140528971954552</title>
<path fill="none" stroke="black" d="M380,-56.9197C380,-49.9083 380,-40.1442 380,-31.4652"/>
<polygon fill="black" stroke="black" points="383.5,-31.3408 380,-21.3408 376.5,-31.3409 383.5,-31.3408"/>
</g>
<!-- 140528971969704 -->
<g id="node5" class="node"><title>140528971969704</title>
<polygon fill="lightgrey" stroke="black" points="472,-141.5 288,-141.5 288,-120.5 472,-120.5 472,-141.5"/>
<text text-anchor="middle" x="380" y="-127.9" font-family="Times,serif" font-size="12.00">ThnnBatchNormBackward</text>
</g>
<!-- 140528971969704&#45;&gt;140528971954272 -->
<g id="edge4" class="edge"><title>140528971969704&#45;&gt;140528971954272</title>
<path fill="none" stroke="black" d="M380,-120.391C380,-111.866 380,-99.1392 380,-88.4235"/>
<polygon fill="black" stroke="black" points="383.5,-88.2448 380,-78.2449 376.5,-88.2449 383.5,-88.2448"/>
</g>
<!-- 140528971969872 -->
<g id="node6" class="node"><title>140528971969872</title>
<polygon fill="lightgrey" stroke="black" points="318,-211.5 190,-211.5 190,-190.5 318,-190.5 318,-211.5"/>
<text text-anchor="middle" x="254" y="-197.9" font-family="Times,serif" font-size="12.00">AddmmBackward</text>
</g>
<!-- 140528971969872&#45;&gt;140528971969704 -->
<g id="edge5" class="edge"><title>140528971969872&#45;&gt;140528971969704</title>
<path fill="none" stroke="black" d="M271.785,-190.401C293.079,-178.91 328.938,-159.557 353.499,-146.302"/>
<polygon fill="black" stroke="black" points="355.167,-149.379 362.305,-141.55 351.842,-143.219 355.167,-149.379"/>
</g>
<!-- 140528971970096 -->
<g id="node7" class="node"><title>140528971970096</title>
<polygon fill="lightgrey" stroke="black" points="185,-275 57,-275 57,-254 185,-254 185,-275"/>
<text text-anchor="middle" x="121" y="-261.4" font-family="Times,serif" font-size="12.00">ExpandBackward</text>
</g>
<!-- 140528971970096&#45;&gt;140528971969872 -->
<g id="edge6" class="edge"><title>140528971970096&#45;&gt;140528971969872</title>
<path fill="none" stroke="black" d="M141.781,-253.891C163.839,-243.691 198.905,-227.476 223.967,-215.887"/>
<polygon fill="black" stroke="black" points="225.757,-218.916 233.365,-211.542 222.819,-212.562 225.757,-218.916"/>
</g>
<!-- 140528971970320 -->
<g id="node8" class="node"><title>140528971970320</title>
<polygon fill="lightblue" stroke="black" points="153.5,-345 88.5,-345 88.5,-311 153.5,-311 153.5,-345"/>
<text text-anchor="middle" x="121" y="-331.4" font-family="Times,serif" font-size="12.00">fc2.bias</text>
<text text-anchor="middle" x="121" y="-318.4" font-family="Times,serif" font-size="12.00"> (300)</text>
</g>
<!-- 140528971970320&#45;&gt;140528971970096 -->
<g id="edge7" class="edge"><title>140528971970320&#45;&gt;140528971970096</title>
<path fill="none" stroke="black" d="M121,-310.842C121,-303.012 121,-293.54 121,-285.282"/>
<polygon fill="black" stroke="black" points="124.5,-285.042 121,-275.042 117.5,-285.042 124.5,-285.042"/>
</g>
<!-- 140528971970152 -->
<g id="node9" class="node"><title>140528971970152</title>
<polygon fill="lightgrey" stroke="black" points="304.5,-275 203.5,-275 203.5,-254 304.5,-254 304.5,-275"/>
<text text-anchor="middle" x="254" y="-261.4" font-family="Times,serif" font-size="12.00">CatBackward</text>
</g>
<!-- 140528971970152&#45;&gt;140528971969872 -->
<g id="edge8" class="edge"><title>140528971970152&#45;&gt;140528971969872</title>
<path fill="none" stroke="black" d="M254,-253.891C254,-245.366 254,-232.639 254,-221.923"/>
<polygon fill="black" stroke="black" points="257.5,-221.745 254,-211.745 250.5,-221.745 257.5,-221.745"/>
</g>
<!-- 140528971970376 -->
<g id="node10" class="node"><title>140528971970376</title>
<polygon fill="lightgrey" stroke="black" points="307,-338.5 199,-338.5 199,-317.5 307,-317.5 307,-338.5"/>
<text text-anchor="middle" x="253" y="-324.9" font-family="Times,serif" font-size="12.00">ReluBackward</text>
</g>
<!-- 140528971970376&#45;&gt;140528971970152 -->
<g id="edge9" class="edge"><title>140528971970376&#45;&gt;140528971970152</title>
<path fill="none" stroke="black" d="M253.156,-317.391C253.295,-308.866 253.502,-296.139 253.676,-285.423"/>
<polygon fill="black" stroke="black" points="257.178,-285.3 253.842,-275.245 250.179,-285.187 257.178,-285.3"/>
</g>
<!-- 140528971970488 -->
<g id="node11" class="node"><title>140528971970488</title>
<polygon fill="lightgrey" stroke="black" points="345,-402 161,-402 161,-381 345,-381 345,-402"/>
<text text-anchor="middle" x="253" y="-388.4" font-family="Times,serif" font-size="12.00">ThnnBatchNormBackward</text>
</g>
<!-- 140528971970488&#45;&gt;140528971970376 -->
<g id="edge10" class="edge"><title>140528971970488&#45;&gt;140528971970376</title>
<path fill="none" stroke="black" d="M253,-380.891C253,-372.366 253,-359.639 253,-348.923"/>
<polygon fill="black" stroke="black" points="256.5,-348.745 253,-338.745 249.5,-348.745 256.5,-348.745"/>
</g>
<!-- 140528971970600 -->
<g id="node12" class="node"><title>140528971970600</title>
<polygon fill="lightgrey" stroke="black" points="191,-465.5 63,-465.5 63,-444.5 191,-444.5 191,-465.5"/>
<text text-anchor="middle" x="127" y="-451.9" font-family="Times,serif" font-size="12.00">AddmmBackward</text>
</g>
<!-- 140528971970600&#45;&gt;140528971970488 -->
<g id="edge11" class="edge"><title>140528971970600&#45;&gt;140528971970488</title>
<path fill="none" stroke="black" d="M146.688,-444.391C167.492,-434.236 200.511,-418.12 224.232,-406.542"/>
<polygon fill="black" stroke="black" points="225.999,-409.574 233.451,-402.042 222.929,-403.283 225.999,-409.574"/>
</g>
<!-- 140528971970824 -->
<g id="node13" class="node"><title>140528971970824</title>
<polygon fill="lightgrey" stroke="black" points="128,-529 0,-529 0,-508 128,-508 128,-529"/>
<text text-anchor="middle" x="64" y="-515.4" font-family="Times,serif" font-size="12.00">ExpandBackward</text>
</g>
<!-- 140528971970824&#45;&gt;140528971970600 -->
<g id="edge12" class="edge"><title>140528971970824&#45;&gt;140528971970600</title>
<path fill="none" stroke="black" d="M73.8438,-507.891C83.4039,-498.558 98.1223,-484.19 109.65,-472.937"/>
<polygon fill="black" stroke="black" points="112.307,-475.235 117.017,-465.745 107.417,-470.226 112.307,-475.235"/>
</g>
<!-- 140528971970992 -->
<g id="node14" class="node"><title>140528971970992</title>
<polygon fill="lightblue" stroke="black" points="100,-599 28,-599 28,-565 100,-565 100,-599"/>
<text text-anchor="middle" x="64" y="-585.4" font-family="Times,serif" font-size="12.00">fcs1.bias</text>
<text text-anchor="middle" x="64" y="-572.4" font-family="Times,serif" font-size="12.00"> (400)</text>
</g>
<!-- 140528971970992&#45;&gt;140528971970824 -->
<g id="edge13" class="edge"><title>140528971970992&#45;&gt;140528971970824</title>
<path fill="none" stroke="black" d="M64,-564.842C64,-557.012 64,-547.54 64,-539.282"/>
<polygon fill="black" stroke="black" points="67.5001,-539.042 64,-529.042 60.5001,-539.042 67.5001,-539.042"/>
</g>
<!-- 140528971970880 -->
<g id="node15" class="node"><title>140528971970880</title>
<polygon fill="lightgrey" stroke="black" points="234,-529 146,-529 146,-508 234,-508 234,-529"/>
<text text-anchor="middle" x="190" y="-515.4" font-family="Times,serif" font-size="12.00">TBackward</text>
</g>
<!-- 140528971970880&#45;&gt;140528971970600 -->
<g id="edge14" class="edge"><title>140528971970880&#45;&gt;140528971970600</title>
<path fill="none" stroke="black" d="M180.156,-507.891C170.596,-498.558 155.878,-484.19 144.35,-472.937"/>
<polygon fill="black" stroke="black" points="146.583,-470.226 136.983,-465.745 141.693,-475.235 146.583,-470.226"/>
</g>
<!-- 140528971971048 -->
<g id="node16" class="node"><title>140528971971048</title>
<polygon fill="lightblue" stroke="black" points="234.5,-599 145.5,-599 145.5,-565 234.5,-565 234.5,-599"/>
<text text-anchor="middle" x="190" y="-585.4" font-family="Times,serif" font-size="12.00">fcs1.weight</text>
<text text-anchor="middle" x="190" y="-572.4" font-family="Times,serif" font-size="12.00"> (400, 33)</text>
</g>
<!-- 140528971971048&#45;&gt;140528971970880 -->
<g id="edge15" class="edge"><title>140528971971048&#45;&gt;140528971970880</title>
<path fill="none" stroke="black" d="M190,-564.842C190,-557.012 190,-547.54 190,-539.282"/>
<polygon fill="black" stroke="black" points="193.5,-539.042 190,-529.042 186.5,-539.042 193.5,-539.042"/>
</g>
<!-- 140528971970656 -->
<g id="node17" class="node"><title>140528971970656</title>
<polygon fill="lightblue" stroke="black" points="297,-472 209,-472 209,-438 297,-438 297,-472"/>
<text text-anchor="middle" x="253" y="-458.4" font-family="Times,serif" font-size="12.00">bn1.weight</text>
<text text-anchor="middle" x="253" y="-445.4" font-family="Times,serif" font-size="12.00"> (400)</text>
</g>
<!-- 140528971970656&#45;&gt;140528971970488 -->
<g id="edge16" class="edge"><title>140528971970656&#45;&gt;140528971970488</title>
<path fill="none" stroke="black" d="M253,-437.842C253,-430.012 253,-420.54 253,-412.282"/>
<polygon fill="black" stroke="black" points="256.5,-412.042 253,-402.042 249.5,-412.042 256.5,-412.042"/>
</g>
<!-- 140528971970712 -->
<g id="node18" class="node"><title>140528971970712</title>
<polygon fill="lightblue" stroke="black" points="386.5,-472 315.5,-472 315.5,-438 386.5,-438 386.5,-472"/>
<text text-anchor="middle" x="351" y="-458.4" font-family="Times,serif" font-size="12.00">bn1.bias</text>
<text text-anchor="middle" x="351" y="-445.4" font-family="Times,serif" font-size="12.00"> (400)</text>
</g>
<!-- 140528971970712&#45;&gt;140528971970488 -->
<g id="edge17" class="edge"><title>140528971970712&#45;&gt;140528971970488</title>
<path fill="none" stroke="black" d="M325.252,-437.842C310.223,-428.411 291.396,-416.596 276.729,-407.391"/>
<polygon fill="black" stroke="black" points="278.536,-404.393 268.205,-402.042 274.815,-410.322 278.536,-404.393"/>
</g>
<!-- 140528971970208 -->
<g id="node19" class="node"><title>140528971970208</title>
<polygon fill="lightgrey" stroke="black" points="411,-275 323,-275 323,-254 411,-254 411,-275"/>
<text text-anchor="middle" x="367" y="-261.4" font-family="Times,serif" font-size="12.00">TBackward</text>
</g>
<!-- 140528971970208&#45;&gt;140528971969872 -->
<g id="edge18" class="edge"><title>140528971970208&#45;&gt;140528971969872</title>
<path fill="none" stroke="black" d="M349.344,-253.891C330.851,-243.826 301.599,-227.906 280.369,-216.351"/>
<polygon fill="black" stroke="black" points="281.989,-213.248 271.532,-211.542 278.643,-219.396 281.989,-213.248"/>
</g>
<!-- 140528971970432 -->
<g id="node20" class="node"><title>140528971970432</title>
<polygon fill="lightblue" stroke="black" points="408.5,-345 325.5,-345 325.5,-311 408.5,-311 408.5,-345"/>
<text text-anchor="middle" x="367" y="-331.4" font-family="Times,serif" font-size="12.00">fc2.weight</text>
<text text-anchor="middle" x="367" y="-318.4" font-family="Times,serif" font-size="12.00"> (300, 404)</text>
</g>
<!-- 140528971970432&#45;&gt;140528971970208 -->
<g id="edge19" class="edge"><title>140528971970432&#45;&gt;140528971970208</title>
<path fill="none" stroke="black" d="M367,-310.842C367,-303.012 367,-293.54 367,-285.282"/>
<polygon fill="black" stroke="black" points="370.5,-285.042 367,-275.042 363.5,-285.042 370.5,-285.042"/>
</g>
<!-- 140528971969928 -->
<g id="node21" class="node"><title>140528971969928</title>
<polygon fill="lightblue" stroke="black" points="424,-218 336,-218 336,-184 424,-184 424,-218"/>
<text text-anchor="middle" x="380" y="-204.4" font-family="Times,serif" font-size="12.00">bn2.weight</text>
<text text-anchor="middle" x="380" y="-191.4" font-family="Times,serif" font-size="12.00"> (300)</text>
</g>
<!-- 140528971969928&#45;&gt;140528971969704 -->
<g id="edge20" class="edge"><title>140528971969928&#45;&gt;140528971969704</title>
<path fill="none" stroke="black" d="M380,-183.885C380,-174.309 380,-162.088 380,-151.912"/>
<polygon fill="black" stroke="black" points="383.5,-151.895 380,-141.895 376.5,-151.895 383.5,-151.895"/>
</g>
<!-- 140528971969984 -->
<g id="node22" class="node"><title>140528971969984</title>
<polygon fill="lightblue" stroke="black" points="513.5,-218 442.5,-218 442.5,-184 513.5,-184 513.5,-218"/>
<text text-anchor="middle" x="478" y="-204.4" font-family="Times,serif" font-size="12.00">bn2.bias</text>
<text text-anchor="middle" x="478" y="-191.4" font-family="Times,serif" font-size="12.00"> (300)</text>
</g>
<!-- 140528971969984&#45;&gt;140528971969704 -->
<g id="edge21" class="edge"><title>140528971969984&#45;&gt;140528971969704</title>
<path fill="none" stroke="black" d="M454.775,-183.885C438.972,-172.919 418.168,-158.484 402.517,-147.624"/>
<polygon fill="black" stroke="black" points="404.186,-144.522 393.974,-141.696 400.195,-150.273 404.186,-144.522"/>
</g>
<!-- 140528971969368 -->
<g id="node23" class="node"><title>140528971969368</title>
<polygon fill="lightgrey" stroke="black" points="558,-78 470,-78 470,-57 558,-57 558,-78"/>
<text text-anchor="middle" x="514" y="-64.4" font-family="Times,serif" font-size="12.00">TBackward</text>
</g>
<!-- 140528971969368&#45;&gt;140528971954552 -->
<g id="edge22" class="edge"><title>140528971969368&#45;&gt;140528971954552</title>
<path fill="none" stroke="black" d="M490.659,-56.9197C469.174,-48.1014 437.081,-34.9287 412.981,-25.0369"/>
<polygon fill="black" stroke="black" points="414.103,-21.7143 403.523,-21.155 411.445,-28.19 414.103,-21.7143"/>
</g>
<!-- 140528971969816 -->
<g id="node24" class="node"><title>140528971969816</title>
<polygon fill="lightblue" stroke="black" points="573.5,-148 490.5,-148 490.5,-114 573.5,-114 573.5,-148"/>
<text text-anchor="middle" x="532" y="-134.4" font-family="Times,serif" font-size="12.00">fc3.weight</text>
<text text-anchor="middle" x="532" y="-121.4" font-family="Times,serif" font-size="12.00"> (1, 300)</text>
</g>
<!-- 140528971969816&#45;&gt;140528971969368 -->
<g id="edge23" class="edge"><title>140528971969816&#45;&gt;140528971969368</title>
<path fill="none" stroke="black" d="M527.271,-113.842C524.927,-105.834 522.08,-96.1082 519.626,-87.7205"/>
<polygon fill="black" stroke="black" points="522.961,-86.6561 516.793,-78.0419 516.243,-88.6224 522.961,-86.6561"/>
</g>
</g>
</svg>